<svg id="visual" viewBox="0 0 900 600" width="900" height="600" xmlns="http://www.w3.org/2000/svg" xmlns:xlink="http://www.w3.org/1999/xlink" version="1.1"><rect x="0" y="0" width="900" height="600" fill="#002233"></rect><path d="M0 430L21.5 429.5C43 429 86 428 128.8 418.8C171.7 409.7 214.3 392.3 257.2 398.3C300 404.3 343 433.7 385.8 447.8C428.7 462 471.3 461 514.2 460.3C557 459.7 600 459.3 642.8 453.8C685.7 448.3 728.3 437.7 771.2 438.8C814 440 857 453 878.5 459.5L900 466L900 601L878.5 601C857 601 814 601 771.2 601C728.3 601 685.7 601 642.8 601C600 601 557 601 514.2 601C471.3 601 428.7 601 385.8 601C343 601 300 601 257.2 601C214.3 601 171.7 601 128.8 601C86 601 43 601 21.5 601L0 601Z" fill="#0066FF" stroke-linecap="round" stroke-linejoin="miter"></path></svg>