<svg id="visual" viewBox="0 0 900 600" width="900" height="600" xmlns="http://www.w3.org/2000/svg" xmlns:xlink="http://www.w3.org/1999/xlink" version="1.1"><path d="M0 115L21.5 109C43 103 86 91 128.8 95C171.7 99 214.3 119 257.2 121C300 123 343 107 385.8 97C428.7 87 471.3 83 514.2 85C557 87 600 95 642.8 98C685.7 101 728.3 99 771.2 92C814 85 857 73 878.5 67L900 61L900 0L878.5 0C857 0 814 0 771.2 0C728.3 0 685.7 0 642.8 0C600 0 557 0 514.2 0C471.3 0 428.7 0 385.8 0C343 0 300 0 257.2 0C214.3 0 171.7 0 128.8 0C86 0 43 0 21.5 0L0 0Z" fill="#004cbb"></path><path d="M0 229L21.5 220C43 211 86 193 128.8 193C171.7 193 214.3 211 257.2 218C300 225 343 221 385.8 216C428.7 211 471.3 205 514.2 202C557 199 600 199 642.8 197C685.7 195 728.3 191 771.2 193C814 195 857 203 878.5 207L900 211L900 59L878.5 65C857 71 814 83 771.2 90C728.3 97 685.7 99 642.8 96C600 93 557 85 514.2 83C471.3 81 428.7 85 385.8 95C343 105 300 121 257.2 119C214.3 117 171.7 97 128.8 93C86 89 43 101 21.5 107L0 113Z" fill="#0062f3"></path><path d="M0 397L21.5 392C43 387 86 377 128.8 381C171.7 385 214.3 403 257.2 409C300 415 343 409 385.8 400C428.7 391 471.3 379 514.2 380C557 381 600 395 642.8 399C685.7 403 728.3 397 771.2 394C814 391 857 391 878.5 391L900 391L900 209L878.5 205C857 201 814 193 771.2 191C728.3 189 685.7 193 642.8 195C600 197 557 197 514.2 200C471.3 203 428.7 209 385.8 214C343 219 300 223 257.2 216C214.3 209 171.7 191 128.8 191C86 191 43 209 21.5 218L0 227Z" fill="#4988ff"></path><path d="M0 445L21.5 441C43 437 86 429 128.8 432C171.7 435 214.3 449 257.2 455C300 461 343 459 385.8 450C428.7 441 471.3 425 514.2 424C557 423 600 437 642.8 439C685.7 441 728.3 431 771.2 431C814 431 857 441 878.5 446L900 451L900 389L878.5 389C857 389 814 389 771.2 392C728.3 395 685.7 401 642.8 397C600 393 557 379 514.2 378C471.3 377 428.7 389 385.8 398C343 407 300 413 257.2 407C214.3 401 171.7 383 128.8 379C86 375 43 385 21.5 390L0 395Z" fill="#6198ff"></path><path d="M0 505L21.5 503C43 501 86 497 128.8 500C171.7 503 214.3 513 257.2 516C300 519 343 515 385.8 511C428.7 507 471.3 503 514.2 505C557 507 600 515 642.8 511C685.7 507 728.3 491 771.2 487C814 483 857 491 878.5 495L900 499L900 449L878.5 444C857 439 814 429 771.2 429C728.3 429 685.7 439 642.8 437C600 435 557 421 514.2 422C471.3 423 428.7 439 385.8 448C343 457 300 459 257.2 453C214.3 447 171.7 433 128.8 430C86 427 43 435 21.5 439L0 443Z" fill="#4988ff"></path><path d="M0 547L21.5 544C43 541 86 535 128.8 536C171.7 537 214.3 545 257.2 549C300 553 343 553 385.8 552C428.7 551 471.3 549 514.2 552C557 555 600 563 642.8 561C685.7 559 728.3 547 771.2 545C814 543 857 551 878.5 555L900 559L900 497L878.5 493C857 489 814 481 771.2 485C728.3 489 685.7 505 642.8 509C600 513 557 505 514.2 503C471.3 501 428.7 505 385.8 509C343 513 300 517 257.2 514C214.3 511 171.7 501 128.8 498C86 495 43 499 21.5 501L0 503Z" fill="#0062f3"></path><path d="M0 601L21.5 601C43 601 86 601 128.8 601C171.7 601 214.3 601 257.2 601C300 601 343 601 385.8 601C428.7 601 471.3 601 514.2 601C557 601 600 601 642.8 601C685.7 601 728.3 601 771.2 601C814 601 857 601 878.5 601L900 601L900 557L878.5 553C857 549 814 541 771.2 543C728.3 545 685.7 557 642.8 559C600 561 557 553 514.2 550C471.3 547 428.7 549 385.8 550C343 551 300 551 257.2 547C214.3 543 171.7 535 128.8 534C86 533 43 539 21.5 542L0 545Z" fill="#004cbb"></path></svg>